# xmcd
#
# Track frame offsets:
#	150
#	16931
#	23594
#	49596
#	77189
#
# Disc length: 1385 seconds
#
# Revision: 0
# Processed by: cddbd v1.5.1PL0 Copyright (c) Steve Scherf et al.
# Submitted via: audiograbber 1.83.01
#
DISCID=2c056705
DTITLE=Black and White Brothers - Put Your Hands Up [CD-Single)
DYEAR=1998
DGENRE=
TTITLE0=Put Your Hands Up (Radio Mix)
TTITLE1=Pump It Up (Couleur 3 Legendary Show Tribute)
TTITLE2=Your Love (98 Edit Mix)
TTITLE3=Put Your Hands Up (Pump It Up Anthem Mix)
TTITLE4=Open The Door (Djaimin N-Joy Remix)
EXTD=
EXTT0=
EXTT1=
EXTT2=
EXTT3=
EXTT4=
PLAYORDER=
